<?xml version="1.0" encoding="UTF-8"?>
<!DOCTYPE svg PUBLIC "-//W3C//DTD SVG 1.1//EN" "http://www.w3.org/Graphics/SVG/1.1/DTD/svg11.dtd">
<!-- Creator: CorelDRAW 2020 (64-Bit) -->
<svg xmlns="http://www.w3.org/2000/svg" xml:space="preserve" width="3.3866mm" height="3.3866mm" version="1.1" style="shape-rendering:geometricPrecision; text-rendering:geometricPrecision; image-rendering:optimizeQuality; fill-rule:evenodd; clip-rule:evenodd"
viewBox="0 0 338.66 338.66"
 xmlns:xlink="http://www.w3.org/1999/xlink"
 xmlns:xodm="http://www.corel.com/coreldraw/odm/2003">
 <defs>
  <style type="text/css">
   <![CDATA[
    .fil0 {fill:#04612E}
    .fil1 {fill:#F58A33}
   ]]>
  </style>
 </defs>
 <g id="Layer_x0020_1">
  <metadata id="CorelCorpID_0Corel-Layer"/>
  <g id="_1422979969552">
   <path class="fil0" d="M157.25 247.97l23.26 0.18c0.02,6.66 0.76,49.72 -0.13,52.27l-23.04 0.19 -0.09 -52.64zm47.25 -162.82c2.92,4.51 22.03,29.56 25.86,34.73 7.39,9.95 18.7,25.63 25.89,34.58 3.03,3.79 2.09,5.31 2.11,12.77 0.01,5.11 0.02,10.22 0.04,15.32 0.02,10.08 0.05,20.16 0.08,30.24 0.03,10.07 0.06,20.15 0.08,30.23 0.01,5.11 0.03,10.21 0.04,15.32 0.01,3.93 0.46,11.86 -0.18,15.32l-0.03 27.01 -47.97 0 -23.38 0.13 -0.33 -58.85 -35.7 -0.3 0.06 59.02 -19.54 0.11c0,-8.23 -0.41,-198.48 0.03,-202.03 0.21,-1.68 14.4,-20.27 16,-21.73 1.89,2.24 3.76,4.74 5.65,7.14 17.27,21.86 35.1,43.72 52.07,65.64 1.97,2.54 3.66,4.76 5.69,7.21l5.85 7.44c0.96,1.98 0.7,45.39 0.78,51.64 1.69,0.67 4.23,0.28 6.16,0.26 0.47,-7.26 -0.07,-16.27 -0.13,-23.72l-0.25 -29.05c-0.22,-2.2 -6.04,-8.58 -7.6,-10.57 -15.7,-20.15 -32.2,-40.14 -47.77,-60.28 -1.76,-2.27 -4,-4.57 -5.34,-7.04 -0.07,-0.03 -0.16,-0.1 -0.18,-0.13l-11.02 -13.86c1.59,-2.58 3.42,-4.74 5.32,-7.27 2.04,-2.72 15.04,-20.51 16.14,-21.26l27.8 37.01c1.07,1.43 2.55,3.71 3.77,4.97zm-72.94 -27.94c0.79,0.47 11.13,13.42 11.77,14.56l-11.76 15.52 -0.01 -6.32 0 -23.76zm40.45 -23.81c-0.57,1.53 -4.73,6.63 -6.03,8.37l-15.56 20.72c-0.51,0.69 -1.01,1.35 -1.54,2.08l-1.86 1.93 -20.46 -26.25c-0.4,-0.47 -0.67,-0.82 -1.2,-1.21l-0.04 1.62 0.01 52.01c0.04,3.96 -0.64,4.09 -2.4,6.43l-33.7 44.9c-10.71,14.25 -8.28,7.99 -8.29,26.46 0,14.32 0.49,102.77 -0.32,104.27l-0.04 26.78c-0.04,3.48 -0.43,2.78 6.49,2.78l0.14 -24.18c-0.63,-10.72 -0.05,-40.04 -0.05,-52.81 0,-17.6 0.01,-35.21 0.02,-52.81 0,-4.3 0.01,-8.6 0,-12.9 -0.02,-5.67 -0.31,-4.03 3.75,-9.44 2.53,-3.38 33.08,-44.53 34.39,-45.52l-0.05 193.23 0.1 7.26 139.87 0c0,-13.67 -0.66,-26.19 -0.38,-39.91l-0.27 -101.18c-0.03,-11.57 1.43,-8.88 -3.88,-16.03l-52.03 -69.72c-5.73,-7.71 -11.49,-15.3 -17.25,-23.05l-12.96 -17.28c-1.4,-1.88 -3.48,-4.32 -4.4,-6.15l-1.05 -1.3 -1.01 0.9z"/>
   <path class="fil1" d="M131.56 80.97l0.01 6.32 11.76 -15.52c-0.64,-1.14 -10.98,-14.09 -11.77,-14.56l0 23.76zm-44.35 199.14l8.59 5.77c8.31,4.93 20.27,11.58 29.47,13.98l0.05 -193.23c-1.31,0.99 -31.86,42.14 -34.39,45.52 -4.06,5.41 -3.77,3.77 -3.75,9.44 0.01,4.3 0,8.6 0,12.9 -0.01,17.6 -0.02,35.21 -0.02,52.81 0,12.77 -0.58,42.09 0.05,52.81zm117.29 -194.96c-1.22,-1.26 -2.7,-3.54 -3.77,-4.97l-27.8 -37.01c-1.1,0.75 -14.1,18.54 -16.14,21.26 -1.9,2.53 -3.73,4.69 -5.32,7.27l11.02 13.86c0.02,0.03 0.11,0.1 0.18,0.13 1.34,2.47 3.58,4.77 5.34,7.04 15.57,20.14 32.07,40.13 47.77,60.28 1.56,1.99 7.38,8.37 7.6,10.57l0.25 29.05c0.06,7.45 0.6,16.46 0.13,23.72 -1.93,0.02 -4.47,0.41 -6.16,-0.26 -0.08,-6.25 0.18,-49.66 -0.78,-51.64l-5.85 -7.44c-2.03,-2.45 -3.72,-4.67 -5.69,-7.21 -16.97,-21.92 -34.8,-43.78 -52.07,-65.64 -1.89,-2.4 -3.76,-4.9 -5.65,-7.14 -1.6,1.46 -15.79,20.05 -16,21.73 -0.44,3.55 -0.03,193.8 -0.03,202.03l19.54 -0.11 -0.06 -59.02 35.7 0.3 0.33 58.85 23.38 -0.13c0.08,-0.06 0.22,-0.23 0.26,-0.15l1.09 -0.52c11.37,-4.37 11.98,-4 24.59,-10.89 4.49,-2.45 12.74,-7.95 16.67,-11.14 1.79,-1.47 3.56,-3.14 5.39,-4.31 0.64,-3.46 0.19,-11.39 0.18,-15.32 -0.01,-5.11 -0.03,-10.21 -0.04,-15.32 -0.02,-10.08 -0.05,-20.16 -0.08,-30.23 -0.03,-10.08 -0.06,-20.16 -0.08,-30.24 -0.02,-5.1 -0.03,-10.21 -0.04,-15.32 -0.02,-7.46 0.92,-8.98 -2.11,-12.77 -7.19,-8.95 -18.5,-24.63 -25.89,-34.58 -3.83,-5.17 -22.94,-30.22 -25.86,-34.73zm-123.88 189.58c0.81,-1.5 0.32,-89.95 0.32,-104.27 0.01,-18.47 -2.42,-12.21 8.29,-26.46l33.7 -44.9c1.76,-2.34 2.44,-2.47 2.4,-6.43l-0.01 -52.01c-11.02,2.7 -29.34,13.24 -38.37,20.03 -17.19,12.94 -30.29,28.71 -40.2,47.68 -23.17,44.37 -18.3,101.77 11.23,141.97l16.28 18.79c1.2,1.19 2.02,1.57 3.24,2.81l3.12 2.79zm45.94 -234.48l20.46 26.25 1.86 -1.93c0.53,-0.73 1.03,-1.39 1.54,-2.08l15.56 -20.72c1.3,-1.74 5.46,-6.84 6.03,-8.37 -8.8,0 -16.57,0.59 -24.36,1.73 -3.37,0.49 -7.3,1.26 -10.76,2.14 -3.23,0.81 -7.78,1.78 -10.33,2.98zm138.3 226.96c6.66,-4.62 18.85,-22.76 22.13,-28.24 6.29,-10.49 11.22,-22.71 14.62,-36.18 2.6,-10.3 3.88,-20.75 3.95,-31.17l0 -1.84c-0.14,-18.3 -4.02,-36.47 -11.12,-53.51 -13.87,-33.32 -44.02,-62.13 -77.82,-74.15 -6.66,-2.37 -12.18,-4.06 -19.67,-5.73 -6.91,-1.54 -14.69,-2.59 -22.88,-2.59 0.92,1.83 3,4.27 4.4,6.15l12.96 17.28c5.76,7.75 11.52,15.34 17.25,23.05l52.03 69.72c5.31,7.15 3.85,4.46 3.88,16.03l0.27 101.18zm-107.52 33.4l23.04 -0.19c0.89,-2.55 0.15,-45.61 0.13,-52.27l-23.26 -0.18 0.09 52.64z"/>
  </g>
 </g>
</svg>
